#!OML:ASF Y:\EmotionMaleHayes\Project 1\Capture day 1\Session 1\Male1.ASF
:FULLY-SPECIFIED
:DEGREES
1441
root 9.31707 16.959 -0.286769 737.524 60.5978 738.967
lowerback 7.37759 -0.962679 -8.68927
upperback 8.45709 -1.23618 -2.53796
thorax 4.9123 -0.889321 2.239
lowerneck -19.2691 -5.60837 0.212728
upperneck 21.7549 -9.08595 5.08545
head 10.4012 -3.48273 0.451835
rclavicle -1.19271e-015 4.13472e-014
rhumerus -50.4459 39.9325 -113.882
rradius 119.637
rwrist -11.3083
rhand -40.3152 -20.3318
rfingers 7.12502
rthumb -13.2717 -49.8893
lclavicle -1.19271e-015 4.13472e-014
lhumerus -46.196 -48.4872 116.586
lradius 109.984
lwrist 44.0483
lhand -15.8477 -31.8746
lfingers 7.12502
lthumb 10.3471 -2.14919
rfemur -17.5858 18.8886 2.06437
rtibia 26.8007
rfoot -14.8113 3.94746
rtoes -18.1532
lfemur 3.12137 12.7 -31.0421
ltibia 7.5753
lfoot -13.5254 12.7588
ltoes -7.28527
1442
root 9.30774 16.9695 -0.290951 739.782 60.9756 741.245
lowerback 7.28872 -0.948028 -9.46085
upperback 8.48448 -1.20965 -2.78969
thorax 5.02315 -0.907928 2.39645
lowerneck -19.3113 -5.68505 0.241001
upperneck 21.6097 -9.20523 5.13739
head 10.3616 -3.53316 0.447771
rclavicle -8.17502e-015 -2.33075e-014
rhumerus -50.2769 39.855 -113.738
rradius 119.644
rwrist -11.4354
rhand -40.5093 -20.848
rfingers 7.12502
rthumb -13.4587 -50.3932
lclavicle -8.17502e-015 -2.33075e-014
lhumerus -46.2281 -48.6226 116.711
lradius 109.961
lwrist 43.9262
lhand -16.4262 -32.2476
lfingers 7.12502
lthumb 9.78897 -2.49511
rfemur -17.6689 18.1785 0.776778
rtibia 26.8696
rfoot -14.945 3.94145
rtoes -17.6425
lfemur 2.9417 12.6482 -32.3253
ltibia 7.37132
lfoot -13.0999 12.1546
ltoes -8.38954
1443
root 9.30445 16.9757 -0.296873 741.919 61.3455 743.497
lowerback 7.22432 -0.991334 -10.2336
upperback 8.55768 -1.25741 -2.979
thorax 5.18296 -0.969002 2.619
lowerneck -19.1694 -5.71445 0.0412278
upperneck 21.3252 -9.21934 5.36422
head 10.2555 -3.54295 0.562994
rclavicle -3.33337e-014 -3.55079e-014
rhumerus -50.4179 39.934 -113.643
rradius 119.826
rwrist -11.6943
rhand -40.71 -21.6404
rfingers 7.12502
rthumb -13.6521 -51.1727
lclavicle -3.33337e-014 -3.55079e-014
lhumerus -46.0918 -48.549 116.736
lradius 109.885
lwrist 43.6114
lhand -16.9396 -32.6195
lfingers 7.12502
lthumb 9.29361 -2.84437
rfemur -17.4791 17.388 -0.412018
rtibia 26.7047
rfoot -14.9847 4.05979
rtoes -17.0825
lfemur 2.94912 12.6898 -33.5273
ltibia 7.17343
lfoot -12.7967 11.4879
ltoes -9.13403
1444
root 9.29284 16.977 -0.296521 742.743 61.8389 744.28
lowerback 7.28089 -0.983278 -10.3987
upperback 8.58181 -1.25293 -2.95689
thorax 5.18726 -0.975248 2.73339
lowerneck -19.2731 -5.72383 -0.13544
upperneck 21.3826 -9.22137 5.50795
head 10.3127 -3.53525 0.637922
rclavicle 2.29351e-014 1.52742e-014
rhumerus -49.9775 40.1766 -113.573
rradius 119.268
rwrist -11.9767
rhand -41.0315 -22.2951
rfingers 7.12502
rthumb -13.962 -51.8063
lclavicle 2.29351e-014 1.52742e-014
lhumerus -45.8174 -48.4497 116.573
lradius 109.833
lwrist 43.6028
lhand -17.0834 -32.8207
lfingers 7.12502
lthumb 9.15488 -3.03942
rfemur -17.457 17.0523 -0.654662
rtibia 26.7972
rfoot -15.1152 3.80195
rtoes -17.0467
lfemur 2.95263 12.6042 -33.7516
ltibia 7.0094
lfoot -12.6977 10.9809
ltoes -8.36678
1445
root 9.27238 16.9783 -0.280477 743.729 62.21 745.164
lowerback 7.34901 -0.891213 -10.842
upperback 8.53181 -1.15524 -2.96068
thorax 5.1066 -0.944147 2.9732
lowerneck -19.5756 -5.7534 -0.041577
upperneck 21.6557 -9.30807 5.47413
head 10.465 -3.55178 0.588008
rclavicle 3.00755e-014 -2.79168e-014
rhumerus -50.2761 39.963 -113.584
rradius 119.539
rwrist -12.1339
rhand -40.8239 -21.8901
rfingers 7.12502
rthumb -13.7619 -51.415
lclavicle 3.00755e-014 -2.79168e-014
lhumerus -45.7743 -48.3439 116.477
lradius 109.891
lwrist 43.7961
lhand -16.8143 -32.8322
lfingers 7.12502
lthumb 9.41456 -3.06243
rfemur -17.6972 17.0468 -0.963684
rtibia 27.1195
rfoot -15.3361 3.22079
rtoes -17.595
lfemur 2.79316 12.5855 -33.9265
ltibia 6.89807
lfoot -12.4419 10.4463
ltoes -7.79273
1446
root 9.24472 16.9806 -0.260121 744.304 62.6939 745.431
lowerback 7.21727 -0.829298 -11.0188
upperback 8.53358 -1.06105 -2.89573
thorax 5.18116 -0.912227 3.13394
lowerneck -19.5671 -5.78068 0.0610152
upperneck 21.4568 -9.38994 5.58413
head 10.3958 -3.575 0.599501
rclavicle 8.72478e-015 -2.77429e-014
rhumerus -50.3945 39.8155 -113.56
rradius 119.82
rwrist -12.276
rhand -40.3984 -21.4942
rfingers 7.12502
rthumb -13.3518 -51.0465
lclavicle 8.72478e-015 -2.77429e-014
lhumerus -45.7954 -48.3215 116.402
lradius 110.022
lwrist 43.978
lhand -16.6473 -33.0057
lfingers 7.12502
lthumb 9.57564 -3.24334
rfemur -18.0902 17.1624 -0.930401
rtibia 27.3962
rfoot -15.5099 2.48826
rtoes -18.0234
lfemur 2.42204 12.4855 -33.7137
ltibia 6.86946
lfoot -12.1071 9.99406
ltoes -7.58113
